HIERARCHY
ROOT hip
{
	OFFSET 0.000000 0.000000 0.000000 
	CHANNELS 6 Xposition Yposition Zposition Xrotation Zrotation Yrotation
	JOINT abdomen
	{
		OFFSET 0.000000 3.402643 0.000000 
		CHANNELS 3 Xrotation Zrotation Yrotation
		JOINT chest
		{
			OFFSET 0.000000 8.438565 -0.680529 
			CHANNELS 3 Xrotation Zrotation Yrotation
			JOINT neck
			{
				OFFSET 0.000000 10.207942 -0.272212 
				CHANNELS 3 Xrotation Zrotation Yrotation
				JOINT head
				{
					OFFSET 0.000000 3.130431 0.000000 
					CHANNELS 3 Xrotation Zrotation Yrotation
					End Site
					{
						OFFSET 0.000000 3.130435 0.000000 
					}
				}
			}
			JOINT lCollar
			{
				OFFSET 3.470700 6.669187 -0.816635 
				CHANNELS 3 Yrotation Zrotation Xrotation
				JOINT lShldr
				{
					OFFSET 3.198488 0.000000 0.000000 
					CHANNELS 3 Zrotation Yrotation Xrotation
					JOINT lForeArm
					{
						OFFSET 10.139888 0.000000 0.000000 
						CHANNELS 3 Yrotation Zrotation Xrotation
						JOINT lHand
						{
							OFFSET 8.370511 0.000000 0.000000 
							CHANNELS 3 Zrotation Yrotation Xrotation
							End Site
							{
								OFFSET 4.083176 0.000000 0.000000 
							}
						}
					}
				}
			}
			JOINT rCollar
			{
				OFFSET -3.470700 6.669187 -0.816635 
				CHANNELS 3 Yrotation Zrotation Xrotation
				JOINT rShldr
				{
					OFFSET -3.198488 0.000000 0.000000 
					CHANNELS 3 Zrotation Yrotation Xrotation
					JOINT rForeArm
					{
						OFFSET -10.139888 0.000000 0.000000 
						CHANNELS 3 Yrotation Zrotation Xrotation
						JOINT rHand
						{
							OFFSET -8.370511 0.000000 0.000000 
							CHANNELS 3 Zrotation Yrotation Xrotation
							End Site
							{
								OFFSET -4.083176 0.000000 0.000000 
							}
						}
					}
				}
			}
		}
	}
	JOINT lThigh
	{
		OFFSET 5.308129 -1.633274 1.361059 
		CHANNELS 3 Xrotation Zrotation Yrotation
		JOINT lShin
		{
			OFFSET -2.041588 -20.007561 0.000000 
			CHANNELS 3 Xrotation Zrotation Yrotation
			JOINT lFoot
			{
				OFFSET 0.000000 -19.190928 -1.224953 
				CHANNELS 3 Xrotation Yrotation Zrotation
				End Site
				{
					OFFSET 0.000000 -2.449906 4.627600 
				}
			}
		}
	}
	JOINT rThigh
	{
		OFFSET -5.308129 -1.633274 1.361059 
		CHANNELS 3 Xrotation Zrotation Yrotation
		JOINT rShin
		{
			OFFSET 2.041588 -20.007561 0.000000 
			CHANNELS 3 Xrotation Zrotation Yrotation
			JOINT rFoot
			{
				OFFSET 0.000000 -19.190928 -1.224953 
				CHANNELS 3 Xrotation Yrotation Zrotation
				End Site
				{
					OFFSET 0.000000 -2.449906 4.627600 
				}
			}
		}
	}
}
MOTION
Frames: 13
Frame Time: 0.016667
10.738366 34.921013 95.169502 4.664578 -14.477833 13.567678 -11.368100 6.734880 -0.957483 20.214500 2.607380 0.726638 -17.506001 1.882120 -0.351157 1.256940 6.180050 0.885255 2.000000 -2.000000 0.000000 -88.939697 12.548000 -159.442001 48.867699 -0.304782 0.103029 0.536728 3.264777 -164.099075 -2.000000 2.000000 0.000000 79.741798 39.729500 -164.634003 -85.606003 0.225324 0.136324 -0.058153 -0.024748 -124.500000 -10.191421 7.867119 10.191384 103.082405 -1.643865 4.321716 -0.148038 2.192918 -0.398016 -31.454691 4.363276 3.658921 48.923592 -3.510966 -4.317122 -20.042233 -10.725464 -2.578629 
11.295609 34.988190 97.586014 3.417139 -15.295717 14.643209 -10.984000 7.034500 0.247184 20.302601 1.943340 1.407410 -18.774700 2.656420 -2.249070 0.832658 6.636850 0.131098 2.000000 -2.000000 0.000000 -86.966797 14.758800 -157.766998 47.002399 -0.308086 0.100048 0.524370 3.268241 -164.529129 -2.000000 2.000000 0.000000 79.679497 41.859699 -165.169006 -72.783699 0.255315 0.130598 -0.059172 -0.029087 -122.907997 -15.823641 9.151996 9.830222 106.762390 -2.306276 4.380023 0.250166 -2.572175 -1.803965 -26.740757 4.738132 1.602388 48.207733 -3.581577 -4.229531 -22.275888 -11.761808 -3.947578 
11.794390 35.029869 99.939949 3.413194 -14.954788 16.037565 -10.849500 7.320550 1.237450 20.605499 2.548830 1.887370 -20.409401 3.621280 -4.021480 0.605068 6.928260 -0.499295 2.000000 -2.000000 0.000000 -85.316101 17.048000 -155.936005 46.689899 -0.308630 0.099538 0.471001 3.272301 -166.376877 -2.000000 2.000000 0.000000 -100.084999 135.212997 11.465800 -57.939999 0.287420 0.115872 -0.061234 -0.036574 -120.135002 -22.694635 7.172005 8.240903 108.081642 -2.761353 4.464916 -0.501804 -4.741342 -3.067237 -23.468613 4.197318 0.683366 48.039268 -3.665688 -4.197444 -24.125032 -12.198541 -4.859941 
12.342937 34.955837 102.228722 3.091672 -15.489321 17.876030 -10.861100 7.571740 1.961310 20.801001 2.499980 2.286470 -21.217501 4.273290 -5.669510 0.277692 7.374760 -1.192280 2.000000 -2.000000 0.000000 -83.284500 19.454599 -153.977997 47.363701 -0.307453 0.100634 0.417500 3.274576 -168.215408 -2.000000 2.000000 0.000000 -99.071404 131.371002 5.708120 -41.562901 0.317144 0.090708 -0.065806 -0.049659 -115.183998 -29.576160 5.072282 5.828012 107.416603 -3.022245 4.593158 5.865457 7.379347 -4.256636 -19.198181 4.515877 -1.082671 47.107475 -3.759642 -4.094159 -22.692579 -16.940264 -7.053646 
13.037974 35.092777 104.562103 2.265207 -16.102579 19.539860 -10.844400 7.824590 2.885580 20.693501 2.207030 2.779080 -20.796801 5.173840 -7.483640 0.530565 7.892920 -1.942900 2.000000 -2.000000 0.000000 -80.841904 21.500900 -151.453003 48.975101 -0.304588 0.103198 0.404114 3.279232 -169.006897 -2.000000 2.000000 0.000000 -97.445900 127.771004 -9.363490 -26.621401 0.337071 0.061265 -0.084088 -0.083224 -101.501999 -34.913517 2.200960 3.184777 104.197327 -2.857655 4.704393 -1.300528 1.119244 -5.351551 -14.523096 5.106719 -2.281476 45.175495 -3.934300 -3.897012 -22.532923 -12.985491 -5.768852 
13.853887 35.380585 107.008163 1.168482 -16.809937 21.329567 -10.600000 8.169830 4.042990 20.879101 1.884740 3.428890 -20.285999 6.146310 -9.678670 0.941675 8.421890 -2.842380 2.000000 -2.000000 0.000000 -78.505096 21.877199 -148.940002 49.990700 -0.302746 0.104772 0.410929 3.275931 -168.439911 -2.000000 2.000000 0.000000 -98.244301 124.887001 -43.244598 -16.865400 0.345683 0.039668 -0.113943 -0.114989 -85.886703 -38.781158 0.429053 1.637671 98.589127 -2.374740 4.798200 -5.799903 -3.403245 -7.131011 -9.232396 5.911176 -3.991970 42.536865 -4.176454 -3.596790 -21.124352 -7.641150 -3.679432 
14.730238 35.752876 109.538345 0.269676 -16.961428 23.291084 -10.510200 8.388030 4.990890 20.673901 1.992180 3.891130 -20.455000 7.900240 -11.812500 1.094710 9.261520 -3.594320 2.000000 -2.000000 0.000000 -76.783600 21.861700 -146.966995 51.387199 -0.300168 0.106883 0.415786 3.274931 -168.273956 -2.000000 2.000000 0.000000 79.671204 53.377399 113.515999 -15.840000 0.346372 0.037320 -0.097716 -0.099896 -93.806602 -41.757027 -1.316010 0.956796 91.040276 -1.677295 4.795426 -7.192621 1.046969 -7.443210 -3.977796 6.283327 -5.386332 39.523102 -4.512187 -3.254196 -17.586000 -1.526083 -1.486833 
15.633774 36.219643 112.234245 -0.491485 -17.212929 25.753859 -10.403900 8.418560 5.437230 20.703199 2.324210 4.098130 -20.733200 10.172800 -13.803200 1.316590 10.209100 -4.170390 2.000000 -2.000000 0.000000 -75.697601 21.268000 -145.931000 52.500500 -0.298076 0.108520 0.405259 3.279009 -168.967850 -2.000000 2.000000 0.000000 79.139900 49.010899 114.782997 -18.047100 0.344838 0.042358 -0.060829 -0.035211 -120.642998 -43.770977 -1.752830 1.097732 82.315094 -0.829635 4.718040 -8.799452 4.558282 -7.340774 1.380785 7.064980 -6.285745 34.954491 -4.785088 -2.820530 -10.973057 4.220688 -0.388949 
16.574606 36.630352 114.998222 -1.116130 -17.970564 28.104355 -10.521100 8.184830 5.575460 20.654400 2.246090 4.135070 -21.197300 12.541600 -15.622100 1.508810 11.215100 -4.618720 2.000000 -2.000000 0.000000 -74.787399 20.557100 -144.942993 53.301300 -0.296552 0.109672 0.357601 3.277822 -170.591064 -2.000000 2.000000 0.000000 80.333900 43.758801 121.782997 -21.406500 0.342133 0.049902 -0.054404 0.001285 -137.380997 -45.502792 -1.222926 1.474742 72.625809 0.096651 4.464504 -9.792486 6.378651 -7.121794 6.796923 9.167446 -5.984061 29.374233 -5.153707 -2.283435 -1.508678 7.663960 -1.225959 
17.652941 37.053417 117.779716 -0.937237 -18.594604 30.060452 -10.802900 7.651320 5.176970 20.752100 2.353500 3.856080 -21.066200 15.132200 -16.731899 1.850980 12.300400 -4.739160 2.000000 -2.000000 0.000000 -74.727798 19.727600 -144.649002 53.525902 -0.296122 0.109992 -179.693130 -183.293869 8.020350 -2.000000 2.000000 0.000000 81.709602 39.356201 127.721001 -23.515900 0.340210 0.054554 -0.055188 0.015889 -142.604996 -46.792076 -0.490187 2.858234 62.391129 0.982413 4.093119 -10.244018 6.055773 -6.949455 10.567651 10.938180 -4.481523 25.640965 -6.153272 -1.887316 2.962638 7.319277 -1.532808 
18.669376 37.348530 120.626358 -1.253977 -20.363716 31.271286 -11.110700 7.245680 4.903100 20.976900 2.148380 3.678220 -20.413401 17.346001 -17.382999 2.347140 13.103300 -4.743930 2.000000 -2.000000 0.000000 -74.424103 18.379900 -144.675995 53.193802 -0.296758 0.109519 -179.710464 -183.305984 7.433589 -2.000000 2.000000 0.000000 83.805298 35.432400 132.802002 -25.302999 0.338448 0.058437 -0.055196 0.015971 -142.634995 -47.941658 1.854171 3.593736 52.903004 1.764764 3.603072 -9.560626 5.720721 -6.654446 13.936400 14.205515 -2.394808 23.164434 -7.572782 -1.663507 5.299523 3.257007 -0.678994 
19.889593 37.498310 123.389877 -1.132702 -21.232349 32.209316 -11.125200 6.529410 4.167290 21.778099 2.050320 3.256920 -19.207800 17.221300 -16.312401 2.709360 12.704400 -4.330710 2.000000 -2.000000 0.000000 -74.980904 16.561701 -145.600006 52.754398 -0.297595 0.108888 -179.740875 -183.309662 6.406963 -2.000000 2.000000 0.000000 85.675102 32.388000 137.108994 -27.607700 0.335998 0.063360 -0.055804 0.021186 -144.509995 -48.351196 3.014269 4.367478 45.190605 2.362535 3.141962 -8.686682 6.283192 -6.244350 15.952540 15.809293 -3.343245 23.421782 -8.918496 -1.781938 6.398264 2.203956 -0.048853 
21.073639 37.503197 125.973663 -1.978174 -22.818710 34.012222 -11.441700 6.141420 2.841850 21.944000 1.688960 2.599760 -19.550800 17.714199 -15.317800 2.277680 12.956500 -3.885920 2.000000 -2.000000 0.000000 -76.369301 14.594700 -147.647003 51.504398 -0.299949 0.107057 -179.745209 -183.310150 6.260544 -2.000000 2.000000 0.000000 87.446098 29.030899 141.263000 -32.090199 0.330676 0.072635 -0.060010 0.042054 -152.117004 -48.944340 4.291216 3.466193 41.290138 2.745202 2.844099 -7.479717 7.333283 -6.119593 16.278790 17.405306 -4.053231 27.150242 -7.554270 -1.992050 5.884860 1.862785 -0.722552 
